<svg width="16" height="18" viewBox="0 0 16 18" fill="none" xmlns="http://www.w3.org/2000/svg">
<path fill-rule="evenodd" clip-rule="evenodd" d="M4.79257 1.42163C4.99093 0.679734 5.66272 0.167236 6.42719 0.167236H9.95469C10.7192 0.167236 11.3909 0.679735 11.5893 1.42163C11.5928 1.43452 11.5958 1.44751 11.5984 1.46059L11.8009 2.47368C11.8708 2.82224 12.1772 3.0741 12.5325 3.07473H15.2569C15.6021 3.07473 15.8819 3.35456 15.8819 3.69973C15.8819 4.04491 15.6021 4.32473 15.2569 4.32473H12.5352L12.5339 4.32474L12.5315 4.32473H3.85043L3.84802 4.32474L3.84667 4.32473H1.12524C0.780066 4.32473 0.500244 4.04491 0.500244 3.69973C0.500244 3.35456 0.780066 3.07473 1.12524 3.07473H3.84936C4.20464 3.0741 4.51105 2.82249 4.58097 2.47393L4.78347 1.46059C4.78609 1.44751 4.78912 1.43452 4.79257 1.42163ZM10.5752 2.71913C10.5999 2.84253 10.6357 2.96138 10.6814 3.07473H5.70042C5.74618 2.9613 5.78201 2.84236 5.80674 2.71888L6.00447 1.72941C6.06099 1.54445 6.23193 1.41724 6.42719 1.41724H9.95469C10.15 1.41724 10.3209 1.54445 10.3774 1.72941L10.5752 2.71913ZM2.7899 5.95205C2.76342 5.60789 2.46296 5.35036 2.1188 5.37683C1.77464 5.4033 1.5171 5.70376 1.54358 6.04792L2.19935 14.573C2.32459 16.2011 3.68222 17.4583 5.31515 17.4583H10.685C12.3179 17.4583 13.6755 16.2011 13.8008 14.573L14.4566 6.04792C14.483 5.70376 14.2255 5.4033 13.8813 5.37683C13.5372 5.35036 13.2367 5.60789 13.2102 5.95205L12.5545 14.4771C12.4793 15.454 11.6647 16.2083 10.685 16.2083H5.31515C4.33539 16.2083 3.52082 15.454 3.44567 14.4771L2.7899 5.95205Z" fill="#6F757F"/>
</svg>
