<svg width="18" height="18" viewBox="0 0 18 18" fill="none" xmlns="http://www.w3.org/2000/svg">
<path fill-rule="evenodd" clip-rule="evenodd" d="M14.9515 2.31542C14.4197 1.78418 13.5576 1.78418 13.0258 2.31542L12.5137 2.82749L15.4532 5.76694L15.9655 5.25463C16.4968 4.7239 16.4974 3.86124 15.9655 3.32935L14.9515 2.31542ZM14.5693 6.65082L11.6298 3.71137L6.79853 8.54268C6.5837 8.75751 6.45991 9.04648 6.45222 9.34961L6.38982 11.8591H8.87075C9.18479 11.8591 9.48588 11.7342 9.70798 11.5121L14.5693 6.65082ZM12.1424 1.43106C13.1622 0.412302 14.8151 0.412302 15.835 1.43106L16.8494 2.44547C17.8691 3.46525 17.8695 5.11949 16.8491 6.13875L10.5919 12.396C10.1356 12.8523 9.51671 13.1091 8.87075 13.1091H5.74908C5.58063 13.1091 5.41931 13.0411 5.30168 12.9205C5.18406 12.7999 5.12009 12.6369 5.12428 12.4685L5.20261 9.31854C5.21831 8.69508 5.47285 8.10059 5.91464 7.6588L12.1424 1.43106ZM1.95844 2.12614C2.81074 1.21175 4.0251 0.699163 5.46116 0.699163H8.57699C8.92217 0.699163 9.20199 0.978985 9.20199 1.32416C9.20199 1.66934 8.92217 1.94916 8.57699 1.94916H5.46116C4.33472 1.94916 3.4645 2.34366 2.87283 2.97843C2.27662 3.61808 1.91699 4.55224 1.91699 5.70666V12.635C1.91699 13.7902 2.27521 14.7242 2.8703 15.3635C3.46068 15.9977 4.33057 16.3925 5.46116 16.3925H12.8145C13.9456 16.3925 14.8157 15.9977 15.4061 15.3635C16.0013 14.7242 16.3595 13.7902 16.3595 12.635V9.27833C16.3595 8.93315 16.6393 8.65333 16.9845 8.65333C17.3297 8.65333 17.6095 8.93315 17.6095 9.27833V12.635C17.6095 14.0481 17.1681 15.3054 16.321 16.2153C15.4692 17.1302 14.2543 17.6425 12.8145 17.6425H5.46116C4.02175 17.6425 2.80705 17.1302 1.95536 16.2152C1.10836 15.3053 0.666992 14.0481 0.666992 12.635V5.70666C0.666992 4.29275 1.11069 3.03566 1.95844 2.12614Z" fill="#6F757F"/>
</svg>
